# MagicaVoxel @ Ephtracy

# group
g trainTunel

# material
mtllib trainTunel.mtl
usemtl palette

# normals
vn -1 0 0
vn 1 0 0
vn 0 0 1
vn 0 0 -1
vn 0 -1 0
vn 0 1 0

# texcoords
vt 0.0371094 0.5
vt 0.990234 0.5

# verts
v -10 0 63
v -10 0 59
v -10 0 -63
v -10 2 63
v -10 2 59
v -10 4 63
v -10 4 59
v -10 6 63
v -10 6 59
v -10 8 63
v -10 8 59
v -10 10 63
v -10 10 59
v -10 12 63
v -10 12 59
v -10 14 63
v -10 14 59
v -10 16 63
v -10 16 59
v -10 18 63
v -10 18 59
v -10 19 63
v -10 19 -63
v -9 19 63
v -9 19 -63
v -9 20 63
v -9 20 -63
v 8 0 63
v 8 0 59
v 8 0 -63
v 8 2 63
v 8 2 59
v 8 4 63
v 8 4 59
v 8 6 63
v 8 6 59
v 8 8 63
v 8 8 59
v 8 10 63
v 8 10 59
v 8 12 63
v 8 12 59
v 8 14 63
v 8 14 59
v 8 16 63
v 8 16 59
v 8 18 63
v 8 18 59
v 8 18 -63
v -8 0 63
v -8 0 59
v -8 0 -63
v -8 2 63
v -8 2 59
v -8 4 63
v -8 4 59
v -8 6 63
v -8 6 59
v -8 8 63
v -8 8 59
v -8 10 63
v -8 10 59
v -8 12 63
v -8 12 59
v -8 14 63
v -8 14 59
v -8 16 63
v -8 16 59
v -8 18 63
v -8 18 59
v -8 18 -63
v 9 19 63
v 9 19 -63
v 9 20 63
v 9 20 -63
v 10 0 63
v 10 0 59
v 10 0 -63
v 10 2 63
v 10 2 59
v 10 4 63
v 10 4 59
v 10 6 63
v 10 6 59
v 10 8 63
v 10 8 59
v 10 10 63
v 10 10 59
v 10 12 63
v 10 12 59
v 10 14 63
v 10 14 59
v 10 16 63
v 10 16 59
v 10 18 63
v 10 18 59
v 10 19 63
v 10 19 -63
v -10 0 63
v -10 2 63
v -10 4 63
v -10 6 63
v -10 8 63
v -10 10 63
v -10 12 63
v -10 14 63
v -10 16 63
v -10 18 63
v -10 19 63
v -9 19 63
v -9 20 63
v -8 0 63
v -8 2 63
v -8 4 63
v -8 6 63
v -8 8 63
v -8 10 63
v -8 12 63
v -8 14 63
v -8 16 63
v -8 18 63
v 8 0 63
v 8 2 63
v 8 4 63
v 8 6 63
v 8 8 63
v 8 10 63
v 8 12 63
v 8 14 63
v 8 16 63
v 8 18 63
v 9 19 63
v 9 20 63
v 10 0 63
v 10 2 63
v 10 4 63
v 10 6 63
v 10 8 63
v 10 10 63
v 10 12 63
v 10 14 63
v 10 16 63
v 10 18 63
v 10 19 63
v -10 0 -63
v -10 19 -63
v -9 19 -63
v -9 20 -63
v -8 0 -63
v -8 18 -63
v 8 0 -63
v 8 18 -63
v 9 19 -63
v 9 20 -63
v 10 0 -63
v 10 19 -63
v -10 0 63
v -8 0 63
v 8 0 63
v 10 0 63
v -10 0 59
v -8 0 59
v 8 0 59
v 10 0 59
v -10 0 -63
v -8 0 -63
v 8 0 -63
v 10 0 -63
v -8 18 63
v 8 18 63
v -8 18 59
v 8 18 59
v -8 18 -63
v 8 18 -63
v -10 19 63
v -9 19 63
v 9 19 63
v 10 19 63
v -10 19 -63
v -9 19 -63
v 9 19 -63
v 10 19 -63
v -9 20 63
v 9 20 63
v -9 20 -63
v 9 20 -63

# faces
f 4/1/1 2/1/1 1/1/1
f 5/2/1 3/2/1 2/2/1
f 5/1/1 2/1/1 4/1/1
f 6/2/1 5/2/1 4/2/1
f 7/2/1 3/2/1 5/2/1
f 7/2/1 5/2/1 6/2/1
f 8/1/1 7/1/1 6/1/1
f 9/2/1 3/2/1 7/2/1
f 9/1/1 7/1/1 8/1/1
f 10/2/1 9/2/1 8/2/1
f 11/2/1 3/2/1 9/2/1
f 11/2/1 9/2/1 10/2/1
f 12/1/1 11/1/1 10/1/1
f 13/2/1 3/2/1 11/2/1
f 13/1/1 11/1/1 12/1/1
f 14/2/1 13/2/1 12/2/1
f 15/2/1 3/2/1 13/2/1
f 15/2/1 13/2/1 14/2/1
f 16/1/1 15/1/1 14/1/1
f 17/2/1 3/2/1 15/2/1
f 17/1/1 15/1/1 16/1/1
f 18/2/1 17/2/1 16/2/1
f 19/2/1 3/2/1 17/2/1
f 19/2/1 17/2/1 18/2/1
f 20/1/1 19/1/1 18/1/1
f 21/2/1 3/2/1 19/2/1
f 21/1/1 19/1/1 20/1/1
f 22/2/1 21/2/1 20/2/1
f 23/2/1 3/2/1 21/2/1
f 23/2/1 21/2/1 22/2/1
f 26/2/1 25/2/1 24/2/1
f 27/2/1 25/2/1 26/2/1
f 31/1/1 29/1/1 28/1/1
f 32/2/1 30/2/1 29/2/1
f 32/1/1 29/1/1 31/1/1
f 33/2/1 32/2/1 31/2/1
f 34/2/1 30/2/1 32/2/1
f 34/2/1 32/2/1 33/2/1
f 35/1/1 34/1/1 33/1/1
f 36/2/1 30/2/1 34/2/1
f 36/1/1 34/1/1 35/1/1
f 37/2/1 36/2/1 35/2/1
f 38/2/1 30/2/1 36/2/1
f 38/2/1 36/2/1 37/2/1
f 39/1/1 38/1/1 37/1/1
f 40/2/1 30/2/1 38/2/1
f 40/1/1 38/1/1 39/1/1
f 41/2/1 40/2/1 39/2/1
f 42/2/1 30/2/1 40/2/1
f 42/2/1 40/2/1 41/2/1
f 43/1/1 42/1/1 41/1/1
f 44/2/1 30/2/1 42/2/1
f 44/1/1 42/1/1 43/1/1
f 45/2/1 44/2/1 43/2/1
f 46/2/1 30/2/1 44/2/1
f 46/2/1 44/2/1 45/2/1
f 47/1/1 46/1/1 45/1/1
f 48/2/1 30/2/1 46/2/1
f 48/1/1 46/1/1 47/1/1
f 49/2/1 30/2/1 48/2/1
f 50/1/2 51/1/2 53/1/2
f 51/2/2 52/2/2 54/2/2
f 53/1/2 51/1/2 54/1/2
f 53/2/2 54/2/2 55/2/2
f 54/2/2 52/2/2 56/2/2
f 55/2/2 54/2/2 56/2/2
f 55/1/2 56/1/2 57/1/2
f 56/2/2 52/2/2 58/2/2
f 57/1/2 56/1/2 58/1/2
f 57/2/2 58/2/2 59/2/2
f 58/2/2 52/2/2 60/2/2
f 59/2/2 58/2/2 60/2/2
f 59/1/2 60/1/2 61/1/2
f 60/2/2 52/2/2 62/2/2
f 61/1/2 60/1/2 62/1/2
f 61/2/2 62/2/2 63/2/2
f 62/2/2 52/2/2 64/2/2
f 63/2/2 62/2/2 64/2/2
f 63/1/2 64/1/2 65/1/2
f 64/2/2 52/2/2 66/2/2
f 65/1/2 64/1/2 66/1/2
f 65/2/2 66/2/2 67/2/2
f 66/2/2 52/2/2 68/2/2
f 67/2/2 66/2/2 68/2/2
f 67/1/2 68/1/2 69/1/2
f 68/2/2 52/2/2 70/2/2
f 69/1/2 68/1/2 70/1/2
f 70/2/2 52/2/2 71/2/2
f 72/2/2 73/2/2 74/2/2
f 74/2/2 73/2/2 75/2/2
f 76/1/2 77/1/2 79/1/2
f 77/2/2 78/2/2 80/2/2
f 79/1/2 77/1/2 80/1/2
f 79/2/2 80/2/2 81/2/2
f 80/2/2 78/2/2 82/2/2
f 81/2/2 80/2/2 82/2/2
f 81/1/2 82/1/2 83/1/2
f 82/2/2 78/2/2 84/2/2
f 83/1/2 82/1/2 84/1/2
f 83/2/2 84/2/2 85/2/2
f 84/2/2 78/2/2 86/2/2
f 85/2/2 84/2/2 86/2/2
f 85/1/2 86/1/2 87/1/2
f 86/2/2 78/2/2 88/2/2
f 87/1/2 86/1/2 88/1/2
f 87/2/2 88/2/2 89/2/2
f 88/2/2 78/2/2 90/2/2
f 89/2/2 88/2/2 90/2/2
f 89/1/2 90/1/2 91/1/2
f 90/2/2 78/2/2 92/2/2
f 91/1/2 90/1/2 92/1/2
f 91/2/2 92/2/2 93/2/2
f 92/2/2 78/2/2 94/2/2
f 93/2/2 92/2/2 94/2/2
f 93/1/2 94/1/2 95/1/2
f 94/2/2 78/2/2 96/2/2
f 95/1/2 94/1/2 96/1/2
f 95/2/2 96/2/2 97/2/2
f 96/2/2 78/2/2 98/2/2
f 97/2/2 96/2/2 98/2/2
f 110/2/3 109/2/3 108/2/3
f 112/1/3 100/1/3 99/1/3
f 113/2/3 101/2/3 100/2/3
f 113/1/3 100/1/3 112/1/3
f 114/1/3 102/1/3 101/1/3
f 114/2/3 101/2/3 113/2/3
f 115/2/3 103/2/3 102/2/3
f 115/1/3 102/1/3 114/1/3
f 116/1/3 104/1/3 103/1/3
f 116/2/3 103/2/3 115/2/3
f 117/2/3 105/2/3 104/2/3
f 117/1/3 104/1/3 116/1/3
f 118/1/3 106/1/3 105/1/3
f 118/2/3 105/2/3 117/2/3
f 119/2/3 107/2/3 106/2/3
f 119/1/3 106/1/3 118/1/3
f 120/1/3 108/1/3 107/1/3
f 120/2/3 107/2/3 119/2/3
f 121/2/3 111/2/3 110/2/3
f 121/1/3 108/1/3 120/1/3
f 121/2/3 110/2/3 108/2/3
f 131/2/3 111/2/3 121/2/3
f 132/2/3 111/2/3 131/2/3
f 133/2/3 111/2/3 132/2/3
f 134/1/3 123/1/3 122/1/3
f 135/2/3 124/2/3 123/2/3
f 135/1/3 123/1/3 134/1/3
f 136/1/3 125/1/3 124/1/3
f 136/2/3 124/2/3 135/2/3
f 137/2/3 126/2/3 125/2/3
f 137/1/3 125/1/3 136/1/3
f 138/1/3 127/1/3 126/1/3
f 138/2/3 126/2/3 137/2/3
f 139/2/3 128/2/3 127/2/3
f 139/1/3 127/1/3 138/1/3
f 140/1/3 129/1/3 128/1/3
f 140/2/3 128/2/3 139/2/3
f 141/2/3 130/2/3 129/2/3
f 141/1/3 129/1/3 140/1/3
f 142/1/3 131/1/3 130/1/3
f 142/2/3 130/2/3 141/2/3
f 143/2/3 132/2/3 131/2/3
f 143/1/3 131/1/3 142/1/3
f 144/2/3 132/2/3 143/2/3
f 145/2/4 146/2/4 147/2/4
f 145/2/4 147/2/4 149/2/4
f 147/2/4 148/2/4 149/2/4
f 149/2/4 148/2/4 150/2/4
f 150/2/4 148/2/4 152/2/4
f 152/2/4 148/2/4 153/2/4
f 151/2/4 152/2/4 153/2/4
f 153/2/4 148/2/4 154/2/4
f 151/2/4 153/2/4 155/2/4
f 155/2/4 153/2/4 156/2/4
f 161/1/5 158/1/5 157/1/5
f 162/1/5 158/1/5 161/1/5
f 163/1/5 160/1/5 159/1/5
f 164/1/5 160/1/5 163/1/5
f 165/2/5 162/2/5 161/2/5
f 166/2/5 162/2/5 165/2/5
f 167/2/5 164/2/5 163/2/5
f 168/2/5 164/2/5 167/2/5
f 171/2/5 170/2/5 169/2/5
f 172/2/5 170/2/5 171/2/5
f 173/2/5 172/2/5 171/2/5
f 174/2/5 172/2/5 173/2/5
f 175/2/6 176/2/6 179/2/6
f 179/2/6 176/2/6 180/2/6
f 177/2/6 178/2/6 181/2/6
f 181/2/6 178/2/6 182/2/6
f 183/2/6 184/2/6 185/2/6
f 185/2/6 184/2/6 186/2/6
